# xmcd
#
# Track frame offsets:
#	150
#	9848
#	19685
#	28711
#	39671
#	50474
#	61277
#	72343
#	83908
#	96302
#	106937
#	118052
#	127149
#	137351
#	146377
#	155814
#	166564
#	176305
#	189148
#	201554
#	214132
#	225721
#	237390
#	248401
#	258665
#	270019
#	282117
#	292440
#	304871
#
# Disc length: 4193 seconds
#
# Revision: 1
# Processed by: cddbd v1.5.2PL0 Copyright (c) Steve Scherf et al.
# Submitted via: audiograbber 1.83.01
#
DISCID=9a105f1d
DTITLE=Porter Wagoner - The Thin Man From The West Plains (Box Set)(CD 2)
DYEAR=1993
DGENRE=Country
TTITLE0=Hey, Maw
TTITLE1=How Quick
TTITLE2=I Like Girls
TTITLE3=Itchin' For My Baby
TTITLE4=Eat, Drink And Be Merry (Tomorrow You'll Cry)
TTITLE5=I'm Stepping Out Tonight
TTITLE6=Let's Squiggle
TTITLE7=Living In The Past
TTITLE8=What Would You Do (If Jesus Come To Your House)
TTITLE9=How Can You Refuse Him Now
TTITLE10=Tryin' To Forget The Blues
TTITLE11=Uncle Penn
TTITLE12=How I've Tried
TTITLE13=I Like Girls
TTITLE14=Trying To Forget The Blues
TTITLE15=I've Known You From Somewhere
TTITLE16=Seeing Her Only Reminded Me Of You
TTITLE17=Midnight
TTITLE18=I Guess I'm Crazy (For Loving You)
TTITLE19=Born To Lose
TTITLE20=Ivory Tower
TTITLE21=I Should Be With You
TTITLE22=Would You Be Satisfied
TTITLE23=I'm Day Dreamin' Tonight
TTITLE24=I'll Pretend
TTITLE25=Who Will He Be
TTITLE26=Good Mornin' Neighbor
TTITLE27=My Brand Of Blues
TTITLE28=Thinking Of You
EXTD=
EXTT0=
EXTT1=
EXTT2=
EXTT3=
EXTT4=
EXTT5=
EXTT6=
EXTT7=
EXTT8=
EXTT9=
EXTT10=
EXTT11=
EXTT12=
EXTT13=
EXTT14=
EXTT15=
EXTT16=
EXTT17=
EXTT18=
EXTT19=
EXTT20=
EXTT21=
EXTT22=
EXTT23=
EXTT24=
EXTT25=
EXTT26=
EXTT27=
EXTT28=
PLAYORDER=
